# xmcd CD database file
#
# Track frame offsets:
#	150
#	18165
#	37298
#	47730
#	66993
#	86020
#	98680
#	114070
#	129810
#	143225
#	159425
#	173233
#	182363
#	198358
#	210888
#	228268
#
# Disc length: 3203 seconds
#
# Revision: 2
# Processed by: cddbd v1.4PL0 Copyright (c) Steve Scherf et al.
# Submitted via: CDex 1.40Beta9
#
DISCID=c50c8110
DTITLE=Varios - 16 Grandes Tangos For Export
DYEAR=1991
DGENRE=Tango
TTITLE0=Juan D'Arienzo - Instrumental - La Cumparsita
TTITLE1=Astor Piazzolla - Instrumental - Adiós Nonino
TTITLE2=Francini-Pontier - Instrumental - Taquito Militar
TTITLE3=Orquesta Del Tango De Buenos Aires - Instrumental - El Choclo
TTITLE4=Orlando Tripodi - Instrumental - Uno
TTITLE5=Carlos Di Sarli - Instrumental - El Once
TTITLE6=Horacio Salgán - Instrumental - Los Mareados
TTITLE7=Terig Tucci - Carlos Gardel - El Día Que Me Quieras
TTITLE8=Juan D'Arienzo - Instrumental - A Media Luz
TTITLE9=Baffa-Berlingieri - Instrumental - Verano Porteño
TTITLE10=Francini-Pontier - Instrumental - La Yumba
TTITLE11=Juan D'Arienzo - Instrumental - La Puñalada
TTITLE12=Cuarteto Del Centenario - Instrumental - Selección De Tangos Primitivos
TTITLE13=Carlos Di Sarli - Instrumental - La Cachila
TTITLE14=Horacio Salgán - Instrumental - Mala Junta
TTITLE15=Terig Tucci - Carlos Gardel - Mi Buenos Aires Querido
EXTD=YEAR: 1991 ID3G: 113
EXTT0=
EXTT1=
EXTT2=
EXTT3=
EXTT4=
EXTT5=
EXTT6=
EXTT7=
EXTT8=
EXTT9=
EXTT10=
EXTT11=
EXTT12=
EXTT13=
EXTT14=
EXTT15=
PLAYORDER=
